<?xml version="1.0" encoding="UTF-8" standalone="no"?>
<!-- Created with Inkscape (http://www.inkscape.org/) -->

<svg
   xmlns:dc="http://purl.org/dc/elements/1.1/"
   xmlns:cc="http://creativecommons.org/ns#"
   xmlns:rdf="http://www.w3.org/1999/02/22-rdf-syntax-ns#"
   xmlns:svg="http://www.w3.org/2000/svg"
   xmlns="http://www.w3.org/2000/svg"
   xmlns:xlink="http://www.w3.org/1999/xlink"
   xmlns:sodipodi="http://sodipodi.sourceforge.net/DTD/sodipodi-0.dtd"
   xmlns:inkscape="http://www.inkscape.org/namespaces/inkscape"
   width="256"
   height="256"
   viewBox="0 0 256 256"
   id="svg2"
   version="1.1"
   inkscape:version="0.91 r13725"
   sodipodi:docname="hourglass_svg.svg">
  <defs
     id="defs4">
    <linearGradient
       inkscape:collect="always"
       id="linearGradient4461">
      <stop
         style="stop-color:#9e4421;stop-opacity:1"
         offset="0"
         id="stop4463" />
      <stop
         style="stop-color:#784421;stop-opacity:1"
         offset="1"
         id="stop4465" />
    </linearGradient>
    <linearGradient
       inkscape:collect="always"
       id="linearGradient4453">
      <stop
         style="stop-color:#5599ff;stop-opacity:1;"
         offset="0"
         id="stop4455" />
      <stop
         style="stop-color:#5599ff;stop-opacity:0;"
         offset="1"
         id="stop4457" />
    </linearGradient>
    <linearGradient
       inkscape:collect="always"
       id="linearGradient4421">
      <stop
         style="stop-color:#ffcc00;stop-opacity:1;"
         offset="0"
         id="stop4423" />
      <stop
         style="stop-color:#ff7f2a;stop-opacity:1"
         offset="1"
         id="stop4425" />
    </linearGradient>
    <linearGradient
       id="linearGradient4207"
       inkscape:collect="always">
      <stop
         id="stop4209"
         offset="0"
         style="stop-color:#784421;stop-opacity:1;" />
      <stop
         id="stop4211"
         offset="1"
         style="stop-color:#9e4421;stop-opacity:1" />
    </linearGradient>
    <linearGradient
       inkscape:collect="always"
       id="linearGradient4161">
      <stop
         style="stop-color:#784421;stop-opacity:1;"
         offset="0"
         id="stop4163" />
      <stop
         style="stop-color:#9e4421;stop-opacity:1"
         offset="1"
         id="stop4165" />
    </linearGradient>
    <linearGradient
       inkscape:collect="always"
       xlink:href="#linearGradient4161"
       id="linearGradient4167"
       x1="244"
       y1="1028.3622"
       x2="244"
       y2="1040.3622"
       gradientUnits="userSpaceOnUse" />
    <linearGradient
       gradientTransform="matrix(-1,0,0,-1,256,1848.7244)"
       inkscape:collect="always"
       xlink:href="#linearGradient4161"
       id="linearGradient4167-2"
       x1="244"
       y1="1028.3622"
       x2="244"
       y2="1040.3622"
       gradientUnits="userSpaceOnUse" />
    <radialGradient
       inkscape:collect="always"
       xlink:href="#linearGradient4461"
       id="radialGradient4215"
       cx="127.99998"
       cy="924.36218"
       fx="127.99998"
       fy="924.36218"
       r="28"
       gradientTransform="matrix(0.7142859,-7.3802187e-7,3.059711e-7,0.28571478,36.571133,660.25834)"
       gradientUnits="userSpaceOnUse" />
    <linearGradient
       inkscape:collect="always"
       xlink:href="#linearGradient4207"
       id="linearGradient4267"
       x1="24"
       y1="924.36218"
       x2="56"
       y2="924.36218"
       gradientUnits="userSpaceOnUse" />
    <linearGradient
       gradientTransform="matrix(-1,-4.9998375e-6,4.9998375e-6,-1,255.99538,1848.7246)"
       inkscape:collect="always"
       xlink:href="#linearGradient4207"
       id="linearGradient4267-1"
       x1="24"
       y1="924.36218"
       x2="56"
       y2="924.36218"
       gradientUnits="userSpaceOnUse" />
    <linearGradient
       gradientTransform="translate(20,-796.36218)"
       inkscape:collect="always"
       xlink:href="#linearGradient4207"
       id="linearGradient4267-0"
       x1="24"
       y1="924.36218"
       x2="56"
       y2="924.36218"
       gradientUnits="userSpaceOnUse" />
    <linearGradient
       gradientTransform="matrix(-1,-4.9998375e-6,4.9998375e-6,-1,235.99542,1052.3624)"
       inkscape:collect="always"
       xlink:href="#linearGradient4207"
       id="linearGradient4267-1-0"
       x1="24"
       y1="924.36218"
       x2="56"
       y2="924.36218"
       gradientUnits="userSpaceOnUse" />
    <linearGradient
       inkscape:collect="always"
       xlink:href="#linearGradient4421"
       id="linearGradient4427"
       x1="128"
       y1="1004.3622"
       x2="128"
       y2="1028.3622"
       gradientUnits="userSpaceOnUse" />
    <linearGradient
       gradientTransform="matrix(-1,0,0,-1,256,1848.7244)"
       inkscape:collect="always"
       xlink:href="#linearGradient4421"
       id="linearGradient4427-1"
       x1="128"
       y1="1004.3622"
       x2="128"
       y2="1028.3622"
       gradientUnits="userSpaceOnUse" />
    <radialGradient
       inkscape:collect="always"
       xlink:href="#linearGradient4453"
       id="radialGradient4459"
       cx="128.00003"
       cy="924.36218"
       fx="128.00003"
       fy="924.36218"
       r="116"
       gradientTransform="matrix(1.3103446,-7.2215588e-7,6.081316e-7,1.1034487,-39.724677,-95.623909)"
       gradientUnits="userSpaceOnUse" />
  </defs>
  <sodipodi:namedview
     id="base"
     pagecolor="#ffffff"
     bordercolor="#666666"
     borderopacity="1.0"
     inkscape:pageopacity="0.0"
     inkscape:pageshadow="2"
     inkscape:zoom="4.7706562"
     inkscape:cx="13.946741"
     inkscape:cy="157.19681"
     inkscape:document-units="px"
     inkscape:current-layer="layer1"
     showgrid="true"
     units="px"
     inkscape:window-width="3840"
     inkscape:window-height="2082"
     inkscape:window-x="0"
     inkscape:window-y="0"
     inkscape:window-maximized="1"
     inkscape:snap-bbox="true"
     inkscape:bbox-nodes="true"
     inkscape:bbox-paths="true"
     inkscape:snap-bbox-edge-midpoints="true"
     inkscape:snap-bbox-midpoints="true"
     inkscape:object-paths="true"
     inkscape:snap-intersection-paths="true"
     inkscape:object-nodes="true"
     inkscape:snap-smooth-nodes="true"
     inkscape:snap-midpoints="true"
     inkscape:snap-center="true"
     inkscape:snap-object-midpoints="true"
     inkscape:snap-text-baseline="true"
     inkscape:snap-page="true">
    <inkscape:grid
       type="xygrid"
       id="grid4136"
       dotted="false" />
  </sodipodi:namedview>
  <metadata
     id="metadata7">
    <rdf:RDF>
      <cc:Work
         rdf:about="">
        <dc:format>image/svg+xml</dc:format>
        <dc:type
           rdf:resource="http://purl.org/dc/dcmitype/StillImage" />
        <dc:title></dc:title>
      </cc:Work>
    </rdf:RDF>
  </metadata>
  <g
     inkscape:groupmode="layer"
     id="layer2"
     inkscape:label="Layer 2">
    <path
       inkscape:connector-curvature="0"
       id="path4241-4-50"
       style="opacity:1;fill:url(#linearGradient4267-0);fill-opacity:1;stroke:none;stroke-width:2;stroke-linecap:butt;stroke-linejoin:miter;stroke-miterlimit:4;stroke-dasharray:none;stroke-dashoffset:0;stroke-opacity:1"
       d="m 76,120 a 16,16 0 0 1 -16,16 16,16 0 0 1 -16,-16 16,16 0 0 1 16,-16 16,16 0 0 1 16,16 z m 0,16 A 16,16 0 0 1 60,152 16,16 0 0 1 44,136 16,16 0 0 1 60,120 16,16 0 0 1 76,136 Z M 52,23.99998 l 16,0 0,208.00004 -16,0 z" />
    <path
       inkscape:connector-curvature="0"
       id="path4241-4-5-7"
       style="opacity:1;fill:url(#linearGradient4267-1-0);fill-opacity:1;stroke:none;stroke-width:2;stroke-linecap:butt;stroke-linejoin:miter;stroke-miterlimit:4;stroke-dasharray:none;stroke-dashoffset:0;stroke-opacity:1"
       d="M 180,135.99992 A 16,16 0 0 1 196.00008,120 16,16 0 0 1 212,136.00008 16,16 0 0 1 195.99992,152 16,16 0 0 1 180,135.99992 Z m 8e-5,-16 A 16,16 0 0 1 196.00016,104 16,16 0 0 1 212.00008,120.00008 16,16 0 0 1 196,136 16,16 0 0 1 180.00008,119.99992 Z m 23.99944,112.0001 -16,0 0.001,-208.0001 16,8e-5 z" />
  </g>
  <g
     inkscape:label="Layer 1"
     inkscape:groupmode="layer"
     id="layer1"
     transform="translate(0,-796.36216)">
    <path
       style="opacity:1;fill:url(#linearGradient4427);fill-opacity:1;stroke:none;stroke-width:2;stroke-linecap:butt;stroke-linejoin:miter;stroke-miterlimit:4;stroke-dasharray:none;stroke-dashoffset:0;stroke-opacity:1"
       d="M 25.179688,992.28602 C 16.587312,1007.0886 12,1020.6331 12,1028.3622 l 232,0 c 0,-7.7291 -4.58731,-21.2736 -13.17969,-36.07618 C 207.21186,999.0875 157.3791,1012.3622 128,1012.3622 c -29.379103,0 -79.21186,-13.2747 -102.820312,-20.07618 z"
       id="path4372"
       inkscape:connector-curvature="0" />
    <path
       style="opacity:1;fill:url(#linearGradient4167);fill-opacity:1;stroke:none;stroke-width:2;stroke-linecap:butt;stroke-linejoin:miter;stroke-miterlimit:4;stroke-dasharray:none;stroke-dashoffset:0;stroke-opacity:1"
       d="m 12,1040.3622 232,0 0,-12 -232,0 z"
       id="path4140"
       inkscape:connector-curvature="0" />
    <path
       style="opacity:1;fill:url(#linearGradient4167-2);fill-opacity:1;stroke:none;stroke-width:2;stroke-linecap:butt;stroke-linejoin:miter;stroke-miterlimit:4;stroke-dasharray:none;stroke-dashoffset:0;stroke-opacity:1"
       d="m 244,808.36216 -231.999998,0 0,12 231.999998,0 z"
       id="path4140-9"
       inkscape:connector-curvature="0" />
    <path
       style="opacity:1;fill:url(#linearGradient4427-1);fill-opacity:1;stroke:none;stroke-width:2;stroke-linecap:butt;stroke-linejoin:miter;stroke-miterlimit:4;stroke-dasharray:none;stroke-dashoffset:0;stroke-opacity:1"
       d="M 230.82031,856.43836 C 239.41269,841.63576 244,828.09126 244,820.36216 l -232,0 c 0,7.7291 4.58731,21.2736 13.17969,36.0762 23.60845,-6.8015 73.44121,-20.0762 102.82031,-20.0762 29.3791,0 79.21186,13.2747 102.82031,20.0762 z"
       id="path4372-6"
       inkscape:connector-curvature="0" />
    <path
       style="opacity:1;fill:url(#radialGradient4459);fill-opacity:1;stroke:none;stroke-width:2;stroke-linecap:butt;stroke-linejoin:miter;stroke-miterlimit:4;stroke-dasharray:none;stroke-dashoffset:0;stroke-opacity:1"
       d="m 12.000027,820.36216 c 0,24 44,104.00002 116.000003,104 72,-2e-5 116,80.00004 116,104.00004 -8,0 -224.000003,0 -232.000003,0 0,-24 44,-104.00004 116.000003,-104.00004 72,0 116,-80 116,-104 -8,0 -220.000003,0 -232.000003,0 z"
       id="path4193"
       inkscape:connector-curvature="0"
       sodipodi:nodetypes="czcczcc" />
    <path
       style="opacity:1;fill:url(#radialGradient4215);fill-opacity:1;stroke:none;stroke-width:2;stroke-linecap:butt;stroke-linejoin:miter;stroke-miterlimit:4;stroke-dasharray:none;stroke-dashoffset:0;stroke-opacity:1"
       d="m 128,916.36216 28,8 -28,8 -28,-8 z"
       id="path4197"
       inkscape:connector-curvature="0" />
    <path
       id="path4241-4"
       style="opacity:1;fill:url(#linearGradient4267);fill-opacity:1.0;stroke:none;stroke-width:2;stroke-linecap:butt;stroke-linejoin:miter;stroke-miterlimit:4;stroke-dasharray:none;stroke-dashoffset:0;stroke-opacity:1"
       d="m 56,916.36218 a 16,16 0 0 1 -16,16 16,16 0 0 1 -16,-16 16,16 0 0 1 16,-16 16,16 0 0 1 16,16 z m 0,16 a 16,16 0 0 1 -16,16 16,16 0 0 1 -16,-16 16,16 0 0 1 16,-16 16,16 0 0 1 16,16 z m -24,-112.00002 16,0 0,208.00004 -16,0 z" />
    <path
       inkscape:connector-curvature="0"
       id="path4241-4-5"
       style="opacity:1;fill:url(#linearGradient4267-1);fill-opacity:1;stroke:none;stroke-width:2;stroke-linecap:butt;stroke-linejoin:miter;stroke-miterlimit:4;stroke-dasharray:none;stroke-dashoffset:0;stroke-opacity:1"
       d="m 199.99996,932.3621 a 16,16 0 0 1 16.00008,-15.99992 16,16 0 0 1 15.99992,16.00008 16,16 0 0 1 -16.00008,15.99992 16,16 0 0 1 -15.99992,-16.00008 z m 8e-5,-16 a 16,16 0 0 1 16.00008,-15.99992 16,16 0 0 1 15.99992,16.00008 16,16 0 0 1 -16.00008,15.99992 16,16 0 0 1 -15.99992,-16.00008 z m 23.99944,112.0001 -16,0 0.001,-208.0001 16,8e-5 z" />
  </g>
</svg>
